<svg width="170" height="68" viewBox="0 0 170 68" fill="none" xmlns="http://www.w3.org/2000/svg">
<g clip-path="url(#clip0)">
<path d="M43.3633 21.2535V46.0316H44.2877L44.3065 21.2634L43.3633 21.2535L43.3633 21.2535Z" fill="#D71A20"/>
<path d="M13.1386 21.0003C11.0198 20.9846 8.6275 21.6351 5.99468 23.3935C5.99432 23.3935 6.78413 25.3952 5.13518 27.5051C5.13484 27.5051 5.17831 27.5267 5.17983 27.5262C6.77826 26.6411 14.393 19.9604 22.6489 27.9479C22.6489 27.9479 35.6833 26.81 32.2263 38.1638C32.2263 38.1638 36.8365 39.8181 36.2782 46.0392C36.2782 46.0392 36.3325 46.0419 36.334 46.0392C36.5275 45.6412 39.2269 40.2174 34.9611 37.7104C34.9611 37.7104 36.6859 33.7097 33.4653 30.0037C31.8275 28.118 28.8264 26.3171 23.3299 27.0729C23.3296 27.0729 19.495 21.0473 13.1386 21.0003V21.0003ZM0.000480811 21.2322C0.000480811 21.2322 -0.000601014 21.284 0.000480811 21.2849C0.724425 21.6657 5.12701 24.3076 0.190241 27.4629L3.24873 39.8928C3.24873 39.8928 7.53628 36.6085 11.0959 38.1111C13.3672 39.0701 13.9531 41.7187 13.5181 45.8389C13.5181 45.8389 13.5831 45.8427 13.5851 45.8389C13.9115 45.1155 18.1207 37.7324 11.7098 35.4965C10.5004 35.0742 8.7964 34.9423 5.73794 36.0025L2.9027 28.3169C2.9027 28.3169 7.4026 22.5554 0.000480811 21.2322ZM26.7902 36.7405C24.384 36.8548 22.9392 38.5117 22.9392 38.5117C19.1446 35.0118 15.7952 38.8491 15.7952 38.8491C18.2596 41.1852 17.0678 46.0392 17.0678 46.0392C17.0666 46.0364 17.1216 46.0426 17.1236 46.0392C19.1696 42.8785 18.9207 39.7663 18.9207 39.7663C20.9683 39.1756 22.1801 41.295 22.1801 41.295C24.741 38.6396 27.3026 38.4692 28.699 39.2918C32.1636 41.3341 30.9761 45.8389 30.9761 45.8389C30.9761 45.8402 31.0426 45.8408 31.0431 45.8389C33.9434 40.5277 31.3143 38.0215 29.5027 37.2571C28.5038 36.8352 27.5922 36.7024 26.7902 36.7405Z" fill="#D71A20"/>
<path fill-rule="evenodd" clip-rule="evenodd" d="M137.305 36.4967C137.305 36.3688 137.415 36.3935 137.572 36.3935H137.941C137.975 36.3932 138.01 36.39 138.105 36.3973C138.105 36.3973 138.45 36.4461 138.74 36.7398L143.002 42.0197L145.828 42.0222L141.489 36.4482L140.652 35.468C140.618 35.4169 140.631 35.3533 140.781 35.2019L144.99 30.6614L145.38 30.2665C145.421 30.2158 145.522 30.1437 145.295 30.1437H143.294H142.964C142.633 30.1437 142.645 30.1195 142.448 30.3193L138.587 34.5247C138.587 34.5247 138.364 34.8284 138.081 34.8284H137.598C137.572 34.8276 137.528 34.8278 137.458 34.8278C137.416 34.821 137.332 34.8278 137.314 34.7235C137.307 34.6821 137.303 34.6546 137.302 34.5412V24.8566H134.679V42.0206H137.301V36.616L137.305 36.4967ZM164.095 29.877C163.935 29.883 162.466 29.9056 161.453 30.2632C161.203 30.328 159.105 31.1377 158.224 33.523C158.054 33.9125 157.535 35.7831 157.97 37.7298C158.665 40.4516 159.69 41.2089 161.554 41.8935C165.431 42.9136 169.328 40.8167 169.822 37.5945C169.822 37.5945 170.529 33.2339 168.43 31.103C168.43 31.103 167.327 29.877 164.095 29.877ZM163.924 31.9601C166.706 31.9601 167.063 34.0284 167.063 34.0284C167.435 35.4391 167.231 37.0608 167.231 37.0608C167.053 39.1866 165.41 40.0737 164.968 40.1166C163.915 40.4012 162.663 40.0246 162.666 40.0293C160.924 39.5552 160.736 37.1949 160.736 37.1949C160.573 35.9969 160.698 34.8246 160.915 34.0924C161.128 33.3679 161.494 32.991 161.414 33.0816C162.368 31.9297 163.924 31.9601 163.924 31.9601ZM127.389 29.8918C127.389 29.8918 123.93 29.9427 122.458 32.5455C122.458 32.5455 119.71 37.0183 123.756 40.7892C124.361 41.2724 125.331 42.1346 128.422 42.0902C129.081 42.0569 130.314 42.2342 132.725 40.2371L131.937 39.1144L131.854 39.0086C131.791 38.9063 131.444 38.828 131.154 38.9988L130.435 39.487C130.033 39.7802 129.534 39.9096 128.356 40.0096C126.666 40.0912 125.456 39.6277 124.681 38.0458C124.681 38.0458 124.416 37.6054 124.416 36.1976C124.418 36.1366 124.405 36.0537 124.546 36.0537H132.475H132.638C132.712 36.0537 132.77 36.0559 132.788 36.0254C132.81 35.989 132.814 35.8555 132.814 35.7377C132.814 35.204 132.818 34.5927 132.786 34.1366C132.749 33.5932 132.601 32.9735 132.264 32.2921C132.264 32.2921 131.241 29.8918 127.389 29.8918V29.8918ZM127.892 31.6736C130.482 31.8577 130.467 34.6099 130.411 34.5916H124.45C124.45 31.3651 127.892 31.6736 127.892 31.6736ZM109.103 25.2547V41.9193H111.888V35.9406V35.8594L111.951 35.8557H115.293C115.306 35.8481 115.76 35.9024 117.14 35.6233C118.488 35.3577 120.244 33.9268 120.71 33.1049C121.019 32.5602 121.668 30.5772 121.275 29.2437C121.038 28.3316 120.803 27.7934 120.366 27.2516C120.366 27.2516 118.95 25.2546 115.343 25.2546H109.103L109.103 25.2547ZM111.916 27.4792H115.469C118.448 27.4792 118.472 30.2214 118.472 30.2214C118.472 32.4874 116.967 33.2292 116.967 33.2292C116.177 33.6941 115.889 33.7396 115.747 33.7456C115.668 33.7489 115.589 33.7473 115.51 33.7456H111.916V27.4792ZM93.744 36.42C93.744 36.292 93.8547 36.3167 94.0117 36.3167H94.3806C94.4145 36.3165 94.449 36.3133 94.5446 36.3205C94.5446 36.3205 94.8888 36.3693 95.1789 36.663L99.4415 41.9429L102.268 41.9454L97.9287 36.3714L97.0915 35.3912C97.0574 35.3401 97.0701 35.2766 97.2199 35.1252L101.429 30.5847L101.819 30.1897C101.86 30.139 101.961 30.067 101.734 30.067H99.7334H99.4029C99.0724 30.067 99.0843 30.0427 98.8869 30.2426L95.0265 34.4481C95.0265 34.4481 94.8035 34.7518 94.5206 34.7518H94.0377C94.0112 34.751 93.9676 34.7515 93.8974 34.7515C93.8551 34.7447 93.7708 34.7515 93.753 34.6471C93.7467 34.6057 93.7423 34.5783 93.7416 34.4648V24.7803H91.1184V41.9443H93.7404V36.5397L93.744 36.42ZM80.6304 33.5318C80.6304 33.5255 80.6304 33.5182 80.6307 33.5099C80.6291 33.483 80.6506 33.4031 80.679 33.3485C80.679 33.3485 81.3924 31.9624 83.6532 31.9624C83.6532 31.9624 86.0437 31.9012 86.0437 33.7467V41.8451H88.5413V34.0381C88.5413 33.8108 88.5534 33.608 88.5413 33.3562C88.5413 33.3562 88.4695 30.8796 85.9216 30.1951C85.3486 30.0031 84.371 29.9732 83.6956 30.0376C83.6956 30.0376 82.1646 30.0988 80.6572 31.6101L80.6 31.6829C80.5427 31.7556 80.3676 31.7863 80.3676 31.5278V31.0355V30.7866C80.3594 30.6232 80.3039 30.2476 79.8827 30.2476H78.0572V41.8452H80.6286V33.5643L80.6304 33.5318ZM151.365 29.8943C151.071 29.9057 150.753 29.9335 150.409 29.9828C150.409 29.9828 148.826 30.1548 146.73 31.7929C146.73 31.7929 146.427 31.9414 146.752 32.2651L147.64 33.148C147.724 33.2237 147.95 33.3652 148.459 33.0656C148.765 32.877 149.919 32.2097 150.791 31.97C150.791 31.97 152.741 31.4176 153.513 33.2931C153.513 33.2931 153.685 33.5464 153.685 34.9236C153.694 35.2187 153.687 35.2237 153.453 35.2237C153.453 35.2237 147.958 34.9377 146.474 37.4949C146.474 37.4949 145.059 39.2753 147.034 41.2417C147.034 41.2417 148.376 42.5953 151.131 41.8603C151.131 41.8603 152.544 41.6175 153.562 40.6035C153.568 40.5947 153.602 40.5601 153.61 40.5507C153.695 40.4514 153.913 40.3365 153.971 40.5593C153.981 40.5997 153.986 40.6197 153.99 40.6761C153.995 40.7337 154 40.74 154.002 40.9023C154.004 41.1959 153.96 41.7545 154.759 41.7545H155.97C156.045 41.7553 156.178 41.7438 156.178 41.5983V33.9903C156.183 33.728 156.031 32.7118 155.944 32.5061C155.948 32.5146 155.495 31.3845 154.322 30.5792C154.267 30.5532 153.419 29.8145 151.365 29.8943L151.365 29.8943ZM153.4 36.8161C153.465 36.8178 153.65 36.8162 153.65 36.9846V38.9263C153.65 38.9905 153.29 39.6081 152.378 39.9112C151.83 40.1119 150.043 40.6919 149.233 40.0403C149.233 40.0403 148.142 39.2573 148.787 38.1442C148.787 38.1442 149.045 37.5605 150.582 37.1506C150.582 37.1506 151.691 36.8161 153.4 36.8161ZM70.8639 29.893C70.5704 29.9044 70.2525 29.9335 69.9085 29.9828C69.9085 29.9828 68.3249 30.1548 66.2293 31.7929C66.2293 31.7929 65.9262 31.9414 66.2514 32.2651L67.1392 33.148C67.2227 33.2237 67.448 33.3652 67.957 33.0656C68.2631 32.877 69.4176 32.2097 70.2897 31.97C70.2897 31.97 72.24 31.4176 73.0122 33.2931C73.0122 33.2931 73.1843 33.5464 73.1843 34.9236C73.1926 35.2187 73.1843 35.2225 72.9507 35.2225C72.9507 35.2225 67.4566 34.9377 65.9735 37.4949C65.9735 37.4949 64.5564 39.2753 66.5318 41.2417C66.5318 41.2417 67.8746 42.5941 70.6303 41.859C70.6303 41.859 72.0428 41.6163 73.0614 40.6023C73.067 40.5934 73.1012 40.5589 73.1094 40.5494C73.194 40.4502 73.412 40.3365 73.4697 40.5593C73.4801 40.5997 73.4836 40.6197 73.4881 40.6761C73.4925 40.7337 73.4988 40.7388 73.5016 40.9011C73.5033 41.1947 73.4594 41.7545 74.2579 41.7545H75.4691C75.5437 41.7554 75.6769 41.7439 75.6769 41.5984V33.9903C75.6819 33.728 75.5286 32.7118 75.442 32.5061C75.4458 32.5146 74.9942 31.3846 73.8213 30.5792C73.766 30.5533 72.9184 29.8133 70.864 29.893L70.8639 29.893ZM72.8978 36.8149C72.9632 36.8166 73.1487 36.8163 73.1487 36.9846V38.925C73.1487 38.9893 72.7892 39.6081 71.8772 39.9112C71.3292 40.1119 69.5405 40.692 68.7304 40.0403C68.7304 40.0403 67.6409 39.2573 68.2865 38.1442C68.2865 38.1442 68.5437 37.5593 70.0806 37.1494C70.0806 37.1494 71.1891 36.8149 72.8978 36.8149ZM51.5112 25.2842V41.8443H57.6609C57.6609 41.8443 59.6456 41.9561 61.3622 41.2553C61.3622 41.2553 63.0218 40.5788 63.8953 39.048C63.8953 39.048 64.6326 37.6149 64.1732 35.8803C64.0275 35.5785 63.9641 35.0228 62.6767 34.0924C62.647 34.076 61.9458 33.5318 60.8519 33.5784C60.8165 33.577 60.62 33.587 60.5875 33.4665C60.5858 33.4665 60.5306 33.3048 60.8248 33.2181C61.4504 33.0499 62.1837 32.6683 63.0087 31.8335C63.0087 31.8335 63.824 31.1341 63.824 29.561C63.824 29.561 63.8165 28.4063 63.1366 27.2148C63.1366 27.2148 62.5868 26.1349 60.5285 25.5769C60.392 25.5392 59.2905 25.2842 51.6686 25.2842H51.5112ZM54.3506 27.4779H58.197C59.9203 27.4779 60.4756 28.5404 60.4756 28.5404C60.9299 29.3366 60.9441 30.0443 60.9441 30.0443C60.9441 31.2145 60.1583 31.788 60.1583 31.788C59.478 32.3536 58.4678 32.6274 58.0974 32.634C57.6726 32.6576 55.6608 32.634 54.4428 32.634C54.375 32.6339 54.3368 32.6386 54.337 32.618L54.3384 32.5725V27.4976C54.3387 27.4874 54.3339 27.4793 54.3507 27.478L54.3506 27.4779ZM54.3198 34.615H58.4183C60.2539 34.615 60.8445 35.6934 60.8445 35.6934C61.3284 36.5014 61.3437 37.2195 61.3437 37.2195C61.3437 38.4069 60.5063 38.989 60.5063 38.989C59.7817 39.5629 58.7059 39.8393 58.3113 39.8461C57.8589 39.87 55.7167 39.8461 54.4194 39.8461C54.3473 39.846 54.306 39.851 54.3063 39.8301V39.7846V34.6359C54.3066 34.6255 54.3019 34.6163 54.3198 34.615L54.3198 34.615Z" fill="black" stroke="black" stroke-width="0.452141" stroke-linejoin="round"/>
</g>
<defs>
<clipPath id="clip0">
<rect width="170" height="25.0404" fill="white" transform="translate(0 21)"/>
</clipPath>
</defs>
</svg>
