<svg width="170" height="68" viewBox="0 0 170 68" fill="none" xmlns="http://www.w3.org/2000/svg">
<path d="M22.4182 15.0312C26.2889 15.0312 29.4338 11.8863 29.4338 8.01559C29.4338 4.14492 26.2889 1 22.4182 1C18.5475 1 15.4026 4.14492 15.4026 8.01559C15.4026 11.8863 18.5475 15.0312 22.4182 15.0312Z" fill="#E4202C"/>
<path d="M22.4176 35.1103C31.6911 35.1103 39.6744 32.7718 43.0612 29.6268C44.1902 28.5785 44.7546 27.3689 44.7546 26.1594C44.7546 24.9498 44.1095 23.8208 43.0612 22.6919C41.9323 21.6436 40.3195 20.6759 38.3035 19.8695C34.2716 18.2567 28.6268 17.2084 22.4176 17.2084H22.337C14.0312 17.2084 6.77368 19.1438 2.903 21.8049C0.645112 23.337 0 25.1917 0 27.3689V45.1902V50.9962V52.2864C0 55.1088 0.80639 56.3183 1.20958 56.9635C2.41917 58.9794 4.03195 60.5922 6.04792 61.8018L6.2092 61.8824V32.2879L6.37048 32.3686C10.4831 34.062 16.1278 35.1103 22.4176 35.1103ZM12.9829 25.8368C12.8216 25.6755 12.8216 25.4336 12.8216 25.353C12.8216 24.9498 13.1442 24.4659 13.628 24.224C13.8699 24.0627 14.1925 24.0627 14.4344 24.0627H30.8041C31.046 24.0627 31.3686 24.1434 31.6105 24.224C32.175 24.4659 32.4169 24.9498 32.4169 25.353C32.4169 25.5142 32.3362 25.6755 32.2556 25.8368C32.0137 26.0787 31.6911 26.24 31.3686 26.24H13.8699C13.5473 26.24 13.1442 26.0787 12.9829 25.8368Z" fill="url(#paint0_radial)"/>
<path d="M25.6431 61.9631V54.8668C25.6431 52.6896 23.869 50.9962 21.6918 50.9155H21.6111V50.2704C23.869 50.0285 25.5625 48.2544 25.5625 45.9966V40.9969C25.5625 39.868 25.6431 38.739 25.9657 37.6907L26.0463 37.5295H25.885C25.3205 37.6101 24.3529 37.6101 23.3046 37.6101C21.7724 37.6101 20.079 37.5295 19.192 37.4488H19.0307V37.5295C18.6275 38.739 18.4662 39.7874 18.4662 41.0776V46.7223C18.4662 47.9319 17.5792 49.2221 15.9664 49.3028V37.1263H15.8858C13.1441 36.8037 11.1281 36.3199 8.95083 35.5941L8.78955 35.5135V63.3339H8.87019C11.0474 64.3016 13.1441 64.9467 15.8858 65.4306H15.9664V51.3187C17.4986 51.3994 18.4662 52.6089 18.4662 53.8992V61.6405C18.4662 63.2533 18.7888 64.5435 19.192 65.9144V65.995H19.2726C19.8371 66.0757 20.7241 66.0757 21.7724 66.0757C23.2239 66.0757 24.9173 65.995 26.0463 65.8337H26.1269V65.6725C25.8044 64.4629 25.6431 63.3339 25.6431 61.9631Z" fill="url(#paint1_radial)"/>
<path d="M44.1098 34.3845C44.1098 33.7394 43.5453 33.1749 42.9002 33.1749C42.7389 33.1749 42.497 33.2556 42.3357 33.3362C39.2714 35.1103 34.9169 36.5618 30.0786 37.2069C29.0303 37.3682 28.2239 38.2552 28.2239 39.3841V63.2533C28.2239 64.2209 29.0303 65.0273 29.9979 65.0273C30.1592 65.0273 30.2398 65.0273 30.4011 64.9467C34.1912 63.979 37.4167 62.5275 39.9972 60.4309C42.2551 58.4956 44.1098 55.8345 44.1098 52.7702V34.3845ZM37.9006 40.3518V56.9634C37.9006 57.3666 37.6586 57.7698 37.1748 58.0924C36.5297 58.4956 35.8039 58.4956 35.4814 58.0117C35.4007 57.8505 35.4007 57.6892 35.4007 57.6085V40.4324C35.4007 40.0292 35.8039 39.5454 36.3684 39.3841C36.5297 39.3035 36.6103 39.3035 36.7716 39.3035C37.3361 39.3035 37.7393 39.5454 37.9006 40.0292V40.2712V40.3518Z" fill="url(#paint2_radial)"/>
<path d="M64.8722 48.6182C61.9887 48.6182 60.6671 47.8973 60.6671 45.9749V34.6812C60.6671 31.6775 63.4305 31.7977 64.7521 31.7977C68.8371 31.7977 70.399 33.5999 70.399 35.7625C70.399 37.805 68.9572 39.0064 67.3953 39.6072C69.4378 39.9676 71.3602 41.2892 71.3602 43.9324C71.24 46.3354 69.6781 48.6182 64.8722 48.6182ZM64.7521 32.9991C63.6708 32.9991 62.7096 33.1193 62.7096 34.9215V39.2467H64.1514C66.5543 39.2467 68.2363 38.0453 68.2363 36.0028C68.2363 34.2006 67.155 32.9991 64.7521 32.9991ZM64.2715 40.3281H62.7096V45.7346C62.7096 46.9361 63.3103 47.4167 64.8722 47.4167C67.7558 47.4167 69.0774 45.8548 69.0774 43.9324C69.0774 41.5295 67.6356 40.3281 64.2715 40.3281Z" fill="black"/>
<path d="M83.0137 48.3778C82.7734 48.3778 82.4129 48.498 82.2928 48.498C81.8122 48.498 81.4518 48.2577 81.3316 47.5368L81.2115 46.936H81.0913C80.2503 48.0174 79.2891 48.7382 77.9675 48.7382C75.3243 48.7382 73.5221 46.8159 73.5221 42.9712C73.5221 38.8862 76.1653 36.1229 78.9287 36.1229C80.2503 36.1229 83.0137 36.4833 83.0137 38.5258V48.3778ZM81.0913 38.6459C81.0913 37.6848 80.4906 37.2042 78.9287 37.2042C77.2466 37.2042 75.4444 38.7661 75.4444 42.4906C75.4444 45.8547 76.8862 47.1763 78.4481 47.1763C79.6496 47.1763 80.4906 46.4555 81.0913 45.7346V38.6459Z" fill="black"/>
<path d="M93.4671 48.3778V39.7273C93.4671 38.4056 92.7462 37.084 90.5836 37.084C88.3008 37.084 88.1806 37.9251 88.1806 38.7661V48.3778H86.2583V38.1654C86.2583 37.4445 86.4986 37.084 87.0993 36.7236C87.8202 36.3632 89.0217 36.1229 90.5836 36.1229C92.6261 36.1229 95.2693 36.7236 95.2693 39.7273V48.498H93.4671V48.3778Z" fill="black"/>
<path d="M100.435 48.3778H98.5128V30.8364H100.435V41.8899L104.28 37.3243C105.121 36.3632 106.082 36.243 106.683 36.243C107.043 36.243 107.404 36.3632 107.404 36.3632L103.799 40.4481C103.078 41.169 102.358 41.8899 101.877 41.8899V42.2503C102.358 42.2503 103.199 42.6108 104.04 43.6921L108.004 48.3778C108.004 48.3778 107.644 48.498 107.163 48.498C106.442 48.498 105.481 48.3778 104.881 47.5368C103.919 46.4555 100.555 42.1302 100.555 42.1302V48.3778H100.435Z" fill="black"/>
<path d="M120.5 42.2504C120.019 42.2504 119.418 42.1303 118.938 42.1303V48.498H116.895V34.9215C116.895 34.2006 116.415 31.7977 120.98 31.7977C125.065 31.7977 126.867 34.0805 126.867 36.8438C126.867 40.0878 124.945 42.2504 120.5 42.2504ZM121.1 32.9991C118.818 32.9991 119.058 34.3207 119.058 34.9215V40.9288C119.418 40.9288 120.019 41.049 120.38 41.049C123.503 41.049 124.705 39.3669 124.705 36.8438C124.705 34.8013 123.623 32.9991 121.1 32.9991Z" fill="black"/>
<path d="M133.115 48.7382C129.631 48.7382 127.829 45.7346 127.829 42.3705C127.829 39.0064 129.631 36.1229 133.115 36.1229C136.479 36.1229 138.402 39.0064 138.402 42.3705C138.402 45.7346 136.599 48.7382 133.115 48.7382ZM132.995 37.2042C130.712 37.2042 129.871 39.6071 129.871 42.1302C129.871 44.6533 130.832 47.5368 133.115 47.5368C135.518 47.5368 136.359 45.0137 136.359 42.6108C136.359 39.9676 135.398 37.2042 132.995 37.2042Z" fill="black"/>
<path d="M140.684 48.3778V30.9565H142.606V48.3778H140.684Z" fill="black"/>
<path d="M153.901 45.1338C153.901 47.2965 152.098 48.6181 149.695 48.6181C147.653 48.6181 145.13 47.5368 145.13 44.8936H145.61C146.572 44.8936 147.172 45.3741 147.413 46.095C147.653 46.6958 148.374 47.6569 149.695 47.6569C150.777 47.6569 151.978 46.936 151.978 45.6144C151.978 42.6108 145.49 43.2115 145.49 39.6071C145.49 37.5646 147.293 36.3632 149.575 36.3632C151.498 36.3632 153.54 37.3243 153.54 39.6071C152.699 39.8474 151.858 39.6071 151.377 38.5258C151.137 38.0452 150.416 37.4445 149.575 37.4445H149.455C148.254 37.4445 147.293 38.1654 147.293 39.3668C147.293 41.8899 153.901 41.169 153.901 45.1338Z" fill="black"/>
<path d="M158.225 48.3778H156.303V30.8364H158.225V41.8899L162.07 37.3243C162.911 36.3632 163.872 36.243 164.473 36.243C164.833 36.243 165.194 36.3632 165.194 36.3632L161.59 40.4481C160.869 41.169 160.148 41.8899 159.667 41.8899V42.2503C160.148 42.2503 160.989 42.6108 161.83 43.6921L165.795 48.3778C165.795 48.3778 165.434 48.498 164.954 48.498C164.233 48.498 163.272 48.3778 162.671 47.5368C161.71 46.4555 158.346 42.1302 158.346 42.1302V48.3778H158.225Z" fill="black"/>
<path d="M168.558 34.2006C167.717 34.2006 167.116 33.5999 167.116 32.7588C167.116 32.038 167.717 31.3171 168.558 31.3171C169.399 31.3171 170 31.9178 170 32.7588C170 33.5999 169.399 34.2006 168.558 34.2006ZM167.597 48.3779V36.3632H169.519V48.3779H167.597Z" fill="black"/>
<defs>
<radialGradient id="paint0_radial" cx="0" cy="0" r="1" gradientUnits="userSpaceOnUse" gradientTransform="translate(22.1771 17.1887) scale(48.4314)">
<stop stop-color="#004C9A"/>
<stop offset="0.1431" stop-color="#004994"/>
<stop offset="0.3303" stop-color="#013F84"/>
<stop offset="0.5421" stop-color="#033069"/>
<stop offset="0.771" stop-color="#051A43"/>
<stop offset="1" stop-color="#070016"/>
</radialGradient>
<radialGradient id="paint1_radial" cx="0" cy="0" r="1" gradientUnits="userSpaceOnUse" gradientTransform="translate(22.177 17.1887) scale(48.4391)">
<stop stop-color="#004C9A"/>
<stop offset="0.1431" stop-color="#004994"/>
<stop offset="0.3303" stop-color="#013F84"/>
<stop offset="0.5421" stop-color="#033069"/>
<stop offset="0.771" stop-color="#051A43"/>
<stop offset="1" stop-color="#070016"/>
</radialGradient>
<radialGradient id="paint2_radial" cx="0" cy="0" r="1" gradientUnits="userSpaceOnUse" gradientTransform="translate(22.1773 17.1887) scale(48.4275)">
<stop stop-color="#004C9A"/>
<stop offset="0.1431" stop-color="#004994"/>
<stop offset="0.3303" stop-color="#013F84"/>
<stop offset="0.5421" stop-color="#033069"/>
<stop offset="0.771" stop-color="#051A43"/>
<stop offset="1" stop-color="#070016"/>
</radialGradient>
</defs>
</svg>
