<svg width="170" height="68" viewBox="0 0 170 68" fill="none" xmlns="http://www.w3.org/2000/svg">
<g clip-path="url(#clip0)">
<path d="M170.302 7.66736H-0.393433V59.0817H170.302V7.66736Z" fill="#EC0000"/>
<mask id="mask0" mask-type="alpha" maskUnits="userSpaceOnUse" x="-1" y="7" width="172" height="53">
<path d="M170.302 7.66736H-0.393433V59.0817H170.302V7.66736Z" fill="white"/>
</mask>
<g mask="url(#mask0)">
<path fill-rule="evenodd" clip-rule="evenodd" d="M158.082 30.4027C158.082 31.1945 157.969 32.2125 157.856 32.7781C157.178 32.665 156.501 32.6649 155.823 32.6649C155.145 32.6649 154.467 32.665 153.79 32.7781V43.5237H151.079V31.0814C152.208 30.6289 154.242 30.4027 155.823 30.4027C156.501 30.2896 157.517 30.4027 158.082 30.4027ZM139.557 35.9452H145.77C145.77 33.9092 144.64 32.6649 142.72 32.6649C140.799 32.6649 139.783 33.7961 139.557 35.9452ZM148.368 38.2074H139.557C139.896 40.4696 141.251 41.4877 143.623 41.4877C145.092 41.4877 146.673 41.1483 148.029 40.5828C147.916 41.2614 147.803 42.2794 147.577 43.0712C146.334 43.6368 144.979 43.863 143.51 43.863C138.879 43.863 136.62 41.2614 136.62 36.9632C136.62 33.2305 138.314 30.2896 142.72 30.2896C146.673 30.2896 148.368 32.8912 148.368 36.0583C148.594 36.8501 148.481 37.5287 148.368 38.2074ZM131.763 40.6959V32.8912C131.085 32.7781 130.294 32.6649 129.503 32.6649C126.792 32.6649 125.437 34.3616 125.437 37.3025C125.437 39.9041 126.453 41.7139 128.939 41.7139C130.181 41.7139 131.085 41.2614 131.763 40.6959ZM134.587 25.9914V43.6368H132.101L131.988 42.0532C131.311 43.1843 130.181 43.9761 128.374 43.9761C125.098 43.9761 122.839 41.6008 122.839 37.3025C122.839 32.8912 125.211 30.4027 129.842 30.4027C130.52 30.4027 131.198 30.5158 131.876 30.6289V26.4438C132.666 26.1045 133.683 25.9914 134.587 25.9914ZM120.58 35.1534V43.6368H117.869V35.6059C117.869 33.5698 117.191 32.6649 114.48 32.6649C113.802 32.6649 113.011 32.7781 112.334 32.8912V43.6368H109.623V31.0814C111.43 30.6289 113.35 30.4027 114.593 30.4027C118.998 30.2896 120.58 32.0994 120.58 35.1534ZM103.636 40.809V32.8912C103.071 32.7781 102.393 32.7781 101.602 32.7781C98.7784 32.7781 97.4229 34.5878 97.4229 37.4156C97.4229 40.0172 98.4395 41.827 100.925 41.827C102.054 41.7139 102.845 41.2614 103.636 40.809ZM106.347 31.0814V43.6368H103.862L103.749 42.1663C103.071 43.2974 101.941 43.9761 100.247 43.9761C96.971 43.9761 94.7118 41.6008 94.7118 37.3025C94.7118 32.8912 97.084 30.4027 101.715 30.4027C103.41 30.2896 104.878 30.5158 106.347 31.0814ZM91.549 41.6008C92.3397 41.6008 93.1304 41.4877 93.6952 41.2614C93.5822 42.0532 93.4693 42.845 93.3563 43.6368C92.5656 43.9761 91.7749 44.0892 90.9842 44.0892C88.2731 44.0892 86.5788 42.845 86.5788 39.791V26.4438C87.4824 26.2176 88.4991 25.9914 89.2898 25.9914V30.7421H93.6952C93.6952 31.6469 93.5823 32.3256 93.4693 33.1174H89.4027V39.3385C89.4027 40.9221 90.1935 41.6008 91.549 41.6008ZM83.8677 35.1534V43.6368H81.1567V35.6059C81.1567 33.5698 80.4789 32.6649 77.7679 32.6649C77.0902 32.6649 76.2994 32.7781 75.6217 32.8912V43.6368H72.7977V31.0814C74.605 30.6289 76.5254 30.4027 77.7679 30.4027C82.3993 30.2896 83.8677 32.0994 83.8677 35.1534ZM67.0368 40.809V32.8912C66.472 32.7781 65.7942 32.7781 65.0035 32.7781C62.1795 32.7781 60.824 34.5878 60.824 37.4156C60.824 40.0172 61.8406 41.827 64.3257 41.827C65.4553 41.7139 66.246 41.2614 67.0368 40.809ZM69.7478 31.0814V43.6368H67.2627L67.1497 42.1663C66.472 43.2974 65.3424 43.9761 63.648 43.9761C60.3721 43.9761 58.1129 41.6008 58.1129 37.3025C58.1129 32.8912 60.4851 30.4027 65.1164 30.4027C66.8108 30.2896 68.2793 30.5158 69.7478 31.0814ZM44.6708 43.0712C44.6708 42.0532 44.8967 41.3745 45.1226 40.5828C46.4781 41.2614 48.2855 41.6008 49.7539 41.6008C52.1261 41.6008 53.3686 40.809 53.3686 39.3385C53.3686 37.8681 52.465 37.1894 50.0928 36.1714L48.8503 35.6059C46.4781 34.5878 44.8967 33.2305 44.8967 30.5158C44.8967 27.688 46.93 25.7651 50.9965 25.7651C52.5779 25.7651 54.1594 25.9914 55.6278 26.4438C55.5149 27.4618 55.4019 28.2536 55.176 28.9323C53.8205 28.4798 52.2391 28.2536 51.1095 28.2536C48.9632 28.2536 47.9466 29.1585 47.9466 30.4027C47.9466 31.7601 48.9632 32.4387 50.6576 33.2305L52.0131 33.7961C55.176 35.1534 56.5315 36.6239 56.5315 38.9992C56.5315 41.9401 54.3853 43.863 50.0928 43.863C47.8336 43.9761 46.1392 43.7499 44.6708 43.0712ZM32.1322 30.6289C32.1322 29.7241 31.7934 28.8192 31.3415 28.0274L27.162 20.7882C26.8231 20.2227 26.5972 19.6571 26.4843 18.9785L26.2583 19.3178C25.2417 21.1276 25.2417 23.3898 26.2583 25.0865L29.6471 30.8552C30.6638 32.665 30.6638 34.9272 29.6471 36.6239L29.4212 37.0763C29.3083 36.5107 29.0823 35.8321 28.7435 35.2665L25.6936 29.9503L23.7732 26.5569C23.4344 25.9914 23.2084 25.4258 23.0955 24.7471L22.8696 25.0865C21.8529 26.8963 21.8529 29.0454 22.8696 30.8552L26.2583 36.737C27.275 38.5468 27.275 40.809 26.2583 42.5057L26.0324 42.845C25.9195 42.2794 25.6936 41.6008 25.3547 41.0352L21.1752 33.7961C20.6104 32.7781 20.3845 31.7601 20.3845 30.6289C15.8661 31.7601 12.8162 34.2485 12.8162 37.1894C12.8162 41.1483 18.803 44.4286 26.1454 44.4286C33.4878 44.4286 39.4746 41.1483 39.4746 37.1894C39.7005 34.3616 36.5377 31.8732 32.1322 30.6289Z" fill="white"/>
</g>
</g>
<defs>
<clipPath id="clip0">
<rect width="170" height="51.2329" fill="white" transform="translate(0 8)"/>
</clipPath>
</defs>
</svg>
